<?xml version="1.0" encoding="utf-8"?>
<!-- Generator: Adobe Illustrator 16.0.0, SVG Export Plug-In . SVG Version: 6.00 Build 0)  -->
<!DOCTYPE svg PUBLIC "-//W3C//DTD SVG 1.1//EN" "http://www.w3.org/Graphics/SVG/1.1/DTD/svg11.dtd">
<svg version="1.1" xmlns="http://www.w3.org/2000/svg" xmlns:xlink="http://www.w3.org/1999/xlink" x="0px" y="0px" width="960px"
	 height="960px" viewBox="0 0 960 960" enable-background="new 0 0 960 960" xml:space="preserve">
<g id="Layer_1">
	<g>
		<radialGradient id="SVGID_1_" cx="479.457" cy="417.4053" r="253.949" gradientUnits="userSpaceOnUse">
			<stop  offset="0.5" style="stop-color:#FFFC00"/>
			<stop  offset="1" style="stop-color:#F4B400"/>
		</radialGradient>
		<path fill-rule="evenodd" clip-rule="evenodd" fill="url(#SVGID_1_)" d="M684.72,320.63c-0.45-11.69-1.92-23.43-4.489-35.12
			c-0.061-0.3-0.12-0.59-0.19-0.89c-1.19-5.34-2.57-10.57-4.13-15.68c-3.37,4.23-7.78,7.62-12.851,9.76
			c-5.739-21.15-14.85-40.59-26.649-57.84c4.16-2.14,8.83-3.42,13.77-3.58c0.681-0.02,1.36-0.02,2.03,0
			c-3.09-4.84-6.36-9.51-9.8-14.02c-7.25-9.5-15.26-18.25-23.9-26.2c-3.95-3.65-8.04-7.13-12.25-10.43
			c-21.439-16.83-46.029-29.2-72.2-36.43c-51.18-14.13-108.39-8.58-159.93,21.72c-71.11,41.82-111.17,126.82-97.39,207.95
			c11.13,65.47,45.89,114.77,103.3,148.18c1.67,0.97,3.28,3.681,3.31,5.601c0.24,19.79,0.08,39.58,0.21,59.369
			c0.02,2.87-0.89,4.301-3.45,5.66c-15.63,8.29-22.91,24.601-18.81,41.5c3.9,16.07,17.891,27.29,35.271,27.49
			c4.17,0.04,8.43,0,12.43,0V712h138v-64.34c5,0,9.625,0.06,13.845-0.01c16.94-0.28,31.628-11.601,35.519-27.561
			c4.059-16.62-3.097-33.189-18.316-41.21c-2.96-1.56-3.839-3.229-3.809-6.47c0.15-18.73,0.226-37.46,0.005-56.19
			c-0.05-4.17,1.134-6.479,4.914-8.6c54.48-30.49,90.946-83.02,102.096-141.29c1.88-9.8,3.044-19.77,3.435-29.82
			C684.917,331.24,684.93,325.94,684.72,320.63z"/>
		<path fill-rule="evenodd" clip-rule="evenodd" d="M684.72,320.63c-0.45-11.69-1.92-23.43-4.489-35.12
			c-0.061-0.3-0.12-0.59-0.19-0.89c-1.19-5.34-2.57-10.57-4.13-15.68c-3.37,4.23-7.78,7.62-12.851,9.76
			c1.261,4.64,2.36,9.37,3.29,14.17c0.03,0.17,0.07,0.34,0.101,0.51c2.069,10.91,3.16,21.85,3.3,32.69
			c0.15,12.54-0.95,24.97-3.23,37.11c-0.199,1.1-0.42,2.2-0.649,3.3c-11.19,54.26-45.99,102.55-97.28,129.63
			c-7.03,3.71-10.44,7.51-10.12,15.58C559.2,530.03,558,548.43,558,566.8v7.2H397v-6.7c0-20.319,0.585-40.64,0.845-60.96
			c0.05-4.33-1.058-6.439-4.797-8.42c-52.08-27.62-85.539-69.86-99.039-127.38c-24.81-105.79,45.99-211.63,153.291-229.85
			c30.01-5.1,59.596-2.91,86.856,5.3c13.77,4.15,26.982,9.83,39.353,16.9c10.89,6.21,21.15,13.48,30.62,21.71
			c8.44,7.34,16.256,15.43,23.326,24.21c3.14,3.88,6.123,7.9,8.953,12.05c4.16-2.14,8.833-3.42,13.772-3.58
			c0.68-0.02,1.36-0.02,2.03,0c-3.09-4.84-6.36-9.51-9.8-14.02c-7.25-9.5-15.26-18.25-23.9-26.2c-3.95-3.65-8.04-7.13-12.25-10.43
			c-21.439-16.83-46.029-29.2-72.2-36.43c-51.18-14.13-108.39-8.58-159.93,21.72c-71.11,41.82-111.17,126.82-97.39,207.95
			c11.13,65.47,45.89,114.77,103.3,148.18c1.67,0.97,3.28,3.681,3.31,5.601c0.24,19.79,0.08,39.58,0.21,59.369
			c0.02,2.87-0.89,4.301-3.45,5.66c-15.63,8.29-22.91,24.601-18.81,41.5c3.9,16.07,17.891,27.29,35.271,27.49
			c4.17,0.04,8.43,0,12.43,0V712h138v-64.34c5,0,9.625,0.06,13.845-0.01c16.94-0.28,31.628-11.601,35.519-27.561
			c4.059-16.62-3.097-33.189-18.316-41.21c-2.96-1.56-3.839-3.229-3.809-6.47c0.15-18.73,0.226-37.46,0.005-56.19
			c-0.05-4.17,1.134-6.479,4.914-8.6c54.48-30.49,90.946-83.02,102.096-141.29c1.88-9.8,3.044-19.77,3.435-29.82
			C684.917,331.24,684.93,325.94,684.72,320.63z M532,697H424v-13h108V697z M532,666H424v-12h108V666z M581.35,603.83
			c3.021,8.439,0.94,18.15-6.39,23.35c-4.07,2.891-9.58,5.25-14.46,5.28c-54.37,0.37-108.75,0.29-163.12,0.19
			c-12.6-0.03-22.2-9.62-22.21-21.551c0-11.93,9.59-21.489,22.19-21.56c27.19-0.15,54.37-0.05,81.56-0.05
			c27.19,0,54.37-0.061,81.561,0.04C570.36,589.57,578.25,595.18,581.35,603.83z"/>
		<g>
			<path fill-rule="evenodd" clip-rule="evenodd" fill="none" d="M669.75,326.07c0.15,12.54-0.95,24.97-3.23,37.11
				c-0.199,1.1-0.42,2.2-0.649,3.3c-11.19,54.26-45.99,102.55-97.28,129.63c-7.03,3.71-9.94,7.51-9.62,15.58
				C559.7,530.03,559,548.43,559,566.8v6.2H398v-5.7c0-20.319,0.085-40.64,0.345-60.96c0.05-4.33-1.308-6.439-5.047-8.42
				c-52.08-27.62-85.664-69.86-99.164-127.38c-24.81-105.79,45.928-211.63,153.228-229.85c30.01-5.1,59.565-2.91,86.825,5.3
				c13.77,4.15,26.967,9.83,39.337,16.9c10.89,6.21,21.143,13.48,30.612,21.71c8.44,7.34,16.252,15.43,23.322,24.21
				c3.14,3.88,6.121,7.9,8.951,12.05c11.8,17.25,20.911,36.69,26.65,57.84c1.261,4.64,2.36,9.37,3.29,14.17
				c0.03,0.17,0.07,0.34,0.101,0.51C668.52,304.29,669.61,315.23,669.75,326.07z"/>
			<path d="M347.353,496.959l-31.851,39.062l-7.31-5.961l31.851-39.061L347.353,496.959z"/>
			<path d="M294.876,452.021c7.251,0.648,13.393,4.22,18.095,9.766c12.104,14.278,7.395,28.652-2.553,37.18
				c-10.003,8.574-25.757,10.698-37.536-3.195c-4.423-5.217-6.636-11.836-6.088-19.095l8.765,0.875
				c-0.33,4.621,1.403,9.003,4.243,12.353c7.868,9.281,18.186,7.424,24.564,1.923c6.324-5.456,9.849-14.768,1.795-24.269
				c-2.84-3.35-7.425-5.976-12.093-6.36L294.876,452.021z"/>
			<path d="M283.355,414.055l4.034,9.001l-37.62,39.823l-4.358-9.724l29.595-29.914l-42.052,2.121l-4.358-9.724L283.355,414.055z"/>
			<path d="M228.633,343.631l23.833,13.439l0.243,1.856l-19.693,18.77l36.34-4.753l1.233,9.424l-49.977,6.537l-1.419-10.852
				l19.445-18.446l-23.535-12.825L213.692,336l49.977-6.537l1.233,9.424L228.633,343.631z"/>
			<path d="M275.296,260.557l-1.873,7.844l-16.863,2.414l-16.716,1.487l14.397,8.842l13.847,9.599l-1.873,7.844l-53.325,6.293
				l2.475-10.366l38.128-3.111l-32.526-20.352l1.438-6.023l38.296-3.811l-32.693-19.652l2.475-10.365L275.296,260.557z"/>
			<path d="M258.821,198.401l-8.415,13.591l-7.346-4.549c7.656-12.366,14.138-22.834,21.832-35.262l7.346,4.549l-8.414,13.59
				l35.506,21.983l-5.003,8.081L258.821,198.401z"/>
			<path d="M305.392,147.621c-6.694-8.291-1.814-18.241,5.373-24.125c7.799-6.385,18.867-10.143,26.438-0.895
				c8.118,9.917,2.204,17.922-5.985,24.626c-3.231,2.645-7.784,7.768-4.317,12.002l2.736,3.343l24.234-19.84l5.61,6.853
				l-31.588,25.86c-2.782-3.398-5.564-6.796-8.392-10.25c-7.343-8.969-1.398-18.302,6.289-24.596
				c2.953-2.417,7.946-7.343,4.252-11.855c-3.466-4.234-8.952-3.092-13.966,1.012c-3.844,3.147-6.203,8.335-3.386,11.891
				L305.392,147.621z"/>
			<path d="M358.107,116.257c-12.444-27.401,27.835-45.614,40.249-18.279l3.006,6.621c12.414,27.335-27.805,45.679-40.249,18.279
				L358.107,116.257z M369.701,118.978c7.562,16.65,30.636,6.171,23.074-10.479l-3.007-6.621
				c-7.442-16.388-30.606-6.105-23.074,10.479L369.701,118.978z"/>
			<path d="M414.444,85.932c-1.854-10.494,7.229-16.846,16.364-18.523c9.914-1.82,21.419,0.24,23.577,11.996
				c2.314,12.605-6.733,16.755-17.143,18.666c-4.107,0.754-10.569,3.038-9.581,8.42l0.78,4.249l30.805-5.655l1.599,8.71
				l-40.153,7.372c-0.793-4.32-1.586-8.64-2.392-13.03c-2.093-11.401,7.622-16.699,17.395-18.493
				c3.753-0.689,10.505-2.587,9.453-8.323c-0.988-5.382-6.342-7.035-12.716-5.865c-4.886,0.897-9.459,4.299-8.711,8.773
				L414.444,85.932z"/>
			<path d="M471.428,105.683l7.559,0.152l0.679-33.691l-7.847-0.158l0.174-8.639l17.278,0.348l-0.853,42.331l6.983,0.141
				l-0.163,8.063l-23.973-0.482L471.428,105.683z"/>
		</g>
		<linearGradient id="SVGID_2_" gradientUnits="userSpaceOnUse" x1="375.1719" y1="611.0967" x2="582.6846" y2="611.0967">
			<stop  offset="0" style="stop-color:#2193B0"/>
			<stop  offset="1" style="stop-color:#6DD5ED"/>
		</linearGradient>
		<path fill-rule="evenodd" clip-rule="evenodd" fill="url(#SVGID_2_)" d="M478.92,589.493c27.187,0,54.373-0.066,81.558,0.036
			c9.881,0.038,17.775,5.647,20.869,14.303c3.018,8.441,0.943,18.149-6.387,23.351c-4.072,2.892-9.584,5.246-14.465,5.278
			c-54.369,0.365-108.743,0.291-163.116,0.187c-12.6-0.023-22.204-9.622-22.208-21.544c-0.004-11.933,9.589-21.496,22.189-21.564
			C424.547,589.393,451.734,589.493,478.92,589.493z"/>
		<path fill-rule="evenodd" clip-rule="evenodd" fill="#555555" d="M532.594,652.516c0,4.115,0,8.115,0,12.585
			c-35.648,0-71.338,0-107.33,0c0-4.112,0-8.112,0-12.585C460.912,652.516,496.602,652.516,532.594,652.516z"/>
		<path fill-rule="evenodd" clip-rule="evenodd" fill="#555555" d="M425.265,696.024c0-4.645,0-8.645,0-12.93
			c35.866,0,71.432,0,107.313,0c0,4.39,0,8.512,0,12.93C496.725,696.024,461.161,696.024,425.265,696.024z"/>
	</g>
	<line fill="none" stroke="#000000" stroke-width="16" stroke-miterlimit="10" x1="479" y1="711" x2="479" y2="849"/>
	<circle fill="#4285F4" stroke="#000000" stroke-width="16" stroke-miterlimit="10" cx="480" cy="876" r="27"/>
	<line fill="none" stroke="#000000" stroke-width="16" stroke-miterlimit="10" x1="425" y1="582" x2="425" y2="475"/>
	<line fill="none" stroke="#000000" stroke-width="16" stroke-miterlimit="10" x1="481" y1="582" x2="481" y2="439"/>
	<circle fill="#0F9D58" stroke="#000000" stroke-width="16" stroke-miterlimit="10" cx="425" cy="455" r="27"/>
	<line fill="none" stroke="#000000" stroke-width="16" stroke-miterlimit="10" x1="481" y1="392" x2="481" y2="287"/>
	<circle fill="#DB4437" stroke="#000000" stroke-width="16" stroke-miterlimit="10" cx="479" cy="260" r="27"/>
	<polyline fill="none" stroke="#000000" stroke-width="16" stroke-miterlimit="10" points="539,582 540.727,454.971 
		450.163,367.699 	"/>
	<circle fill="#4285F4" stroke="#000000" stroke-width="16" stroke-miterlimit="10" cx="428.855" cy="349.877" r="27"/>
	<circle fill="#E01E5A" stroke="#000000" stroke-width="16" stroke-miterlimit="10" cx="568" cy="862" r="27"/>
	<circle fill="#0F9D58" stroke="#000000" stroke-width="16" stroke-miterlimit="10" cx="625" cy="780" r="27"/>
	<circle fill="#DB4437" stroke="#000000" stroke-width="16" stroke-miterlimit="10" cx="333" cy="780" r="27"/>
	<circle fill="#F4B400" stroke="#000000" stroke-width="16" stroke-miterlimit="10" cx="387" cy="862" r="27"/>
	<polyline fill="none" stroke="#000000" stroke-width="16" stroke-miterlimit="10" points="507,706 508.5,768.5 568,796.75 568,797 
		568,843 	"/>
	<polyline fill="none" stroke="#000000" stroke-width="16" stroke-miterlimit="10" points="538,706 538,751.124 538,751.374 
		597.5,780.062 	"/>
	<polyline fill="none" stroke="#000000" stroke-width="16" stroke-miterlimit="10" points="419,706 419,751.124 419,751.374 
		359.5,780.062 	"/>
	<polyline fill="none" stroke="#000000" stroke-width="16" stroke-miterlimit="10" points="450,706 448.5,768.5 389,796.75 389,797 
		389,843 	"/>
	<path display="none" fill="none" stroke="#000000" stroke-width="5" stroke-miterlimit="10" d="M105,233"/>
	<circle fill-rule="evenodd" clip-rule="evenodd" fill="#666666" cx="652.241" cy="249.758" r="36.241"/>
</g>
<g id="Layer_2">
	<g>
		<path display="none" fill-rule="evenodd" clip-rule="evenodd" fill="#FFFFFF" d="M926.7,169.41c-2.95,7.45-5.8,14.94-8.87,22.34
			c-5.23,12.58-15.57,16.85-28.33,11.87c-3.55-1.38-7.47-4.2-10.62-3.54c-2.87,0.6-4.78,5.19-7.37,7.76
			c-5.529,5.47-11.14,10.86-16.89,16.09c-1.67,1.52-2.24,2.63-1.21,4.78c1.71,3.56,3.26,7.21,4.53,10.95
			c3.47,10.14-0.591,20.13-10.24,24.71c-6.79,3.22-13.72,6.17-20.75,8.83c-10.19,3.86-20.28-0.14-25.11-9.97
			c-2.92-5.95-5.39-12.12-7.859-18.27c-1.69-4.22-0.171-8.11,3.439-9.71c3.83-1.69,7.71-0.17,9.75,4.18
			c2.42,5.19,4.54,10.53,6.84,15.78c2.23,5.08,4.5,5.97,9.65,3.81c5.41-2.27,10.81-4.55,16.189-6.89c4.83-2.1,5.801-4.53,3.74-9.43
			c-2.12-5.05-4.37-10.06-6.46-15.12c-2.01-4.86-1.42-7.58,2.84-10.66c11.511-8.3,21.28-18.24,29.311-29.94
			c2.72-3.96,5.67-4.64,10.35-2.82c5.22,2.04,10.38,4.23,15.61,6.27c4.64,1.81,7.17,0.71,9.069-3.91
			c2.271-5.54,4.5-11.11,6.681-16.69c1.95-4.99,0.97-7.31-3.92-9.33c-5.061-2.1-10.181-4.07-15.24-6.16
			c-4.88-2.02-6.39-4.67-5.521-9.91c2.28-13.61,2.15-27.18-0.35-40.75c-1.01-5.47,0.41-8.06,5.49-10.28
			c5.02-2.2,10.1-4.26,15.12-6.46c4.52-1.98,5.569-4.34,3.75-8.79c-2.42-5.89-4.931-11.75-7.54-17.56
			c-1.82-4.06-4.21-5.02-8.32-3.35c-5.2,2.11-10.32,4.42-15.49,6.59c-5.069,2.14-7.88,1.61-11.01-2.74
			c-8.22-11.41-18-21.14-29.65-29.05c-4.29-2.91-4.97-5.78-3.069-10.61c2-5.1,4.16-10.14,6.18-15.23c1.98-4.98,1.021-7.33-3.86-9.36
			c-5.649-2.35-11.31-4.67-17.01-6.89c-4.439-1.72-6.979-0.59-8.81,3.83c-2.101,5.06-4.07,10.18-6.141,15.25
			c-2.08,5.09-4.819,6.72-10.17,5.8c-13.6-2.37-27.16-2.24-40.72,0.39c-5.15,1-7.86-0.5-10.02-5.39
			c-2.221-5.01-4.301-10.09-6.511-15.11c-2.09-4.77-4.35-5.78-9.04-3.86c-5.89,2.43-11.75,4.95-17.55,7.57
			c-3.81,1.72-4.81,4.2-3.26,8.09c2.13,5.32,4.46,10.57,6.65,15.87c2.079,5.05,1.479,7.79-2.95,10.95
			c-11.351,8.09-20.9,17.88-28.82,29.34c-3.1,4.5-5.87,5.16-10.9,3.17c-5.21-2.06-10.369-4.28-15.59-6.31
			c-4.3-1.67-6.71-0.66-8.54,3.64c-2.5,5.86-4.92,11.76-7.229,17.69c-1.66,4.26-0.57,6.71,3.7,8.52
			c5.279,2.24,10.64,4.31,15.909,6.56c4.79,2.04,6.61,5.6,5.08,9.59c-1.59,4.14-5.609,5.6-10.569,3.67
			c-5.46-2.12-10.92-4.28-16.301-6.62c-11.43-4.96-15.8-15.47-11.289-27.11c2.34-6.06,4.76-12.1,7.279-18.09
			c4.73-11.23,15.19-15.78,26.681-11.61c3.229,1.17,6.399,2.53,9.55,3.91c1.83,0.81,2.92,0.68,4.49-1
			c7.21-7.72,14.63-15.25,22.149-22.67c1.59-1.57,2.271-2.63,1.2-4.82c-1.68-3.42-3.11-6.99-4.39-10.59
			c-3.57-9.97,0.14-19.97,9.579-24.62c7.19-3.54,14.601-6.7,22.131-9.44c9.659-3.51,19.52,0.7,24.18,9.94
			c1.83,3.63,3.31,7.45,4.83,11.23c0.72,1.79,1.63,2.49,3.72,2.14c10.66-1.75,21.36-1.83,32.05-0.33c2.29,0.33,3.17-0.44,3.9-2.4
			c1.38-3.7,2.82-7.39,4.51-10.95c4.45-9.36,14.12-13.86,23.9-10.57c7.84,2.63,15.54,5.78,23.02,9.3
			c8.561,4.03,12.63,13.88,9.87,22.94c-1.3,4.26-3.28,8.3-4.68,12.53c-0.33,1.02-0.01,2.82,0.72,3.52
			c8.47,8.07,17.07,15.99,26.17,24.46c2.771-1.16,6.601-2.83,10.48-4.38c11.949-4.78,22.479-0.48,27.64,11.37
			c3.2,7.34,6.25,14.75,9.37,22.13c-0.34-35.22-0.67-70.44-1-105.65c-130.75,1.23-261.49,2.46-392.24,3.7
			c0.49,51.57,0.97,103.13,1.47,154.67c0.04,5.27,0.091,10.53,0.141,15.79c0.29,31.01,0.59,62.01,0.88,93.01
			c3.56-9.95,10.89-13.9,21.09-13.11c2.7,0.21,3.9-0.69,4.8-3.42c2.19-6.61,4.95-13.04,7.84-20.52c-1.5-1.27-3.699-2.85-5.56-4.75
			c-6.7-6.86-6.89-16.37-0.44-23.38c3.45-3.75,7.04-7.4,10.721-10.93c0.09-0.09,0.189-0.18,0.279-0.27
			c6.671-6.37,16.4-6.91,22.631-0.14c3.42,3.72,6.34,5.05,9.819,4.15c1.4-0.36,2.9-1.09,4.55-2.17c3.54-2.31,7.94-3.36,12.04-4.74
			c1.971-0.67,2.881-1.51,2.771-3.75c-0.15-2.91-0.11-5.89,0.35-8.77c1.23-7.63,7.23-13.05,14.94-13.44
			c5.609-0.28,11.229-0.34,16.84-0.21c8.92,0.2,16.11,6.34,15.85,15.24c-0.229,7.73,2.551,11.04,9.74,12.48
			c3.771,0.76,7.351,2.86,10.8,4.75c2.25,1.23,3.57,0.92,5.21-0.89c3.79-4.19,7.74-8.17,13.98-8.48c4.54-0.23,8.65,0.77,12,3.9
			c4.189,3.93,8.4,7.85,12.28,12.07c6.09,6.61,6.12,15.38,0.14,22.16c-1.92,2.18-4.39,3.88-6.02,5.29
			c3.25,8.16,6.02,15.24,8.949,22.25c0.33,0.78,1.551,1.52,2.45,1.64c1.75,0.25,3.561,0.03,5.351,0.04
			c10.6,0.04,17.52,6.71,17.85,17.31c0.15,4.59,0.22,9.19,0.13,13.78c-0.22,10.36-6.66,16.91-16.96,17.34
			c-2.54,0.11-5.08,0.06-7.25,0.08c-3.2,7.91-6.25,15.44-9.7,23.97c1.63,1.37,3.95,3,5.87,5.01c6.44,6.76,6.69,15.82,0.521,22.78
			c-3.631,4.1-7.5,8.02-11.521,11.74c-6.84,6.34-15.9,6.25-22.76-0.06c-1.97-1.8-3.74-3.82-5.46-5.59
			c-4.92,2.08-9.7,4.11-14.51,6.15c-2.95,1.25-5.91,2.5-8.921,3.78c0.021,2.48,0.19,5.29,0.051,8.08
			c-0.37,7-3.771,12.27-9.301,14.81c-2.039,0.94-4.359,1.5-6.93,1.64c-5.22,0.3-10.479,0.37-15.7,0.14
			c-9.609-0.43-16.069-7.1-16.5-16.71c-0.109-2.54-0.06-5.09-0.08-7.49c-7.72-3.13-15.229-6.18-23.949-9.72
			c-1.24,1.52-2.811,3.88-4.811,5.8c-7,6.72-16.22,6.8-23.359,0.23c-3.66-3.36-7.2-6.87-10.65-10.46
			c-6.95-7.24-6.94-16.55-0.1-23.99c5.13-5.59,5.02-5.54,1.89-12.51c-1.98-4.4-3.44-9.04-5.42-13.45c-0.46-1.05-1.97-1.71-3.12-2.35
			c-0.48-0.27-1.25-0.08-1.88-0.02c-10.2,0.88-17.26-3.18-20.62-13.08c0.33,35.5,0.67,70.99,1,106.49
			c43.19-0.41,86.39-0.81,129.58-1.22c5.13-0.05,10.26-0.1,15.39-0.15c82.431-0.78,164.851-1.55,247.271-2.33
			C927.92,299.13,927.31,234.27,926.7,169.41z M769.93,182.04c-0.16-4.11,3.021-7.07,7.98-7.5c22.21-1.9,37.899-12.8,45.35-34.06
			c9.521-27.18-7.08-56.63-35.35-63.52c-27.94-6.81-55.95,11.85-60.28,40.2c-0.42,2.76-0.46,5.58-0.74,8.36
			c-0.489,4.99-3.5,7.86-7.84,7.55c-4.149-0.3-6.58-3.33-6.63-8.26c-0.3-30.9,23-58.23,53.55-62.76c3.271-0.48,6.57-0.75,9.86-1.12
			c30.29,0.13,56.59,21,62.9,50.1c6.5,30.04-8.5,60.33-36.66,72.36c-7.23,3.09-15.42,4.11-23.28,5.47
			C773.91,189.71,770.09,186.28,769.93,182.04z"/>
		<path fill-rule="evenodd" clip-rule="evenodd" d="M766.33,241.31c-0.33-10.6-7.25-17.27-17.85-17.31
			c-1.79-0.01-3.601,0.21-5.351-0.04c-0.899-0.12-2.12-0.86-2.45-1.64c-2.93-7.01-5.699-14.09-8.949-22.25
			c1.63-1.41,4.1-3.11,6.02-5.29c5.98-6.78,5.95-15.55-0.14-22.16c-3.88-4.22-8.091-8.14-12.28-12.07c-3.35-3.13-7.46-4.13-12-3.9
			c-6.24,0.31-10.19,4.29-13.98,8.48c-1.64,1.81-2.96,2.12-5.21,0.89c-3.449-1.89-7.029-3.99-10.8-4.75
			c-7.189-1.44-9.97-4.75-9.74-12.48c0.261-8.9-6.93-15.04-15.85-15.24c-5.61-0.13-11.23-0.07-16.84,0.21
			c-7.71,0.39-13.71,5.81-14.94,13.44c-0.46,2.88-0.5,5.86-0.35,8.77c0.11,2.24-0.8,3.08-2.771,3.75c-4.1,1.38-8.5,2.43-12.04,4.74
			c-1.649,1.08-3.149,1.81-4.55,2.17c-3.479,0.9-6.399-0.43-9.819-4.15c-6.23-6.77-15.96-6.23-22.631,0.14
			c-0.09,0.09-0.189,0.18-0.279,0.27c-3.681,3.53-7.271,7.18-10.721,10.93c-6.449,7.01-6.26,16.52,0.44,23.38
			c1.86,1.9,4.06,3.48,5.56,4.75c-2.89,7.48-5.649,13.91-7.84,20.52c-0.899,2.73-2.1,3.63-4.8,3.42
			c-10.2-0.79-17.53,3.16-21.09,13.11c0.07,7.4,0.14,14.81,0.21,22.21c3.36,9.9,10.42,13.96,20.62,13.08
			c0.63-0.06,1.399-0.25,1.88,0.02c1.15,0.64,2.66,1.3,3.12,2.35c1.979,4.41,3.439,9.05,5.42,13.45c3.13,6.97,3.24,6.92-1.89,12.51
			c-6.841,7.44-6.851,16.75,0.1,23.99c3.45,3.59,6.99,7.1,10.65,10.46c7.14,6.57,16.359,6.49,23.359-0.23
			c2-1.92,3.57-4.28,4.811-5.8c8.72,3.54,16.229,6.59,23.949,9.72c0.021,2.4-0.029,4.95,0.08,7.49
			c0.431,9.61,6.891,16.28,16.5,16.71c5.221,0.23,10.48,0.16,15.7-0.14c2.57-0.14,4.891-0.7,6.93-1.64
			c5.53-2.54,8.931-7.81,9.301-14.81c0.14-2.79-0.03-5.6-0.051-8.08c3.011-1.28,5.971-2.53,8.921-3.78
			c4.81-2.04,9.59-4.07,14.51-6.15c1.72,1.77,3.49,3.79,5.46,5.59c6.859,6.31,15.92,6.4,22.76,0.06
			c4.021-3.72,7.89-7.64,11.521-11.74c6.17-6.96,5.92-16.02-0.521-22.78c-1.92-2.01-4.24-3.64-5.87-5.01
			c3.45-8.53,6.5-16.06,9.7-23.97c2.17-0.02,4.71,0.03,7.25-0.08c10.3-0.43,16.74-6.98,16.96-17.34
			C766.55,250.5,766.48,245.9,766.33,241.31z M747.93,257.63c-3.56-0.14-7.14-0.04-10.71,0.09c-5.2,0.19-7.81,2.21-8.899,7.24
			c-2.011,9.31-5.5,17.98-10.431,26.13c-3.26,5.39-2.76,8.07,1.75,12.52c2.45,2.42,4.9,4.85,7.42,7.2
			c1.551,1.45,2.061,2.68,0.271,4.42c-3.11,3.02-6.11,6.17-9.04,9.36c-1.49,1.61-2.65,1.5-4.11-0.01
			c-2.66-2.76-5.399-5.43-8.16-8.08c-3.88-3.7-6.819-4.18-11.329-1.33c-3.24,2.04-6.561,3.86-9.971,5.46
			c-4.8,2.26-9.779,4.07-14.97,5.44c-0.67,0.18-1.35,0.35-2.03,0.51c-4.569,1.09-6.31,3.34-6.55,8.16
			c-0.189,3.82-0.09,7.66,0.021,11.49c0.069,2.56-0.98,3.77-3.58,3.77c-3.95,0.01-7.91,0.16-11.86,0.19
			c-2.13,0.02-3.27-0.92-3.24-3.24c0.061-3.7,0.04-7.4-0.12-11.1c-0.239-5.51-2.01-7.87-7.439-9.12
			c-9.53-2.19-18.4-5.86-26.771-10.89c-4.449-2.68-7.21-2.18-10.97,1.51c-2.729,2.67-5.41,5.42-8.05,8.19
			c-1.51,1.59-2.72,1.84-4.4,0.04c-2.779-2.98-5.779-5.77-8.77-8.54c-1.91-1.78-1.931-3.27,0.01-5.09c2.79-2.62,5.46-5.37,8.07-8.16
			c3.18-3.4,3.72-6.53,1.22-10.42c-5.521-8.56-9.35-17.76-11.76-27.64c-1.11-4.51-3.94-6.38-8.74-6.44
			c-3.7-0.04-7.41-0.03-11.1,0.12c-2.57,0.09-3.78-0.86-3.73-3.54c0.08-3.95,0.01-7.91-0.09-11.86c-0.061-2.46,1.12-3.46,3.479-3.47
			c4.08,0,8.16-0.07,12.25-0.13c3.78-0.06,6.391-1.85,7.24-5.56c2.37-10.27,6.09-19.94,11.66-28.93c2.24-3.62,1.5-7.01-1.51-10.09
			c-2.681-2.73-5.391-5.44-8.21-8.02c-1.86-1.72-2.23-3.15-0.221-5.05c2.971-2.8,5.79-5.76,8.601-8.72
			c1.57-1.65,2.939-1.68,4.54-0.05c2.59,2.64,5.24,5.22,7.91,7.79c3.06,2.95,5.46,3.9,8.529,2.82c0.86-0.3,1.771-0.76,2.761-1.37
			c3.77-2.33,7.63-4.39,11.609-6.17c4.811-2.15,9.79-3.87,15-5.12c5.311-1.28,6.88-3.48,7.061-8.98c0.109-3.69-0.09-7.39-0.15-11.1
			c-0.04-2.26,0.76-3.56,3.34-3.5c4.08,0.09,8.17,0.05,12.25-0.11c2.351-0.09,3.2,0.91,3.19,3.15c-0.03,3.57,0.01,7.14,0.12,10.71
			c0.189,5.83,1.91,8.25,7.449,9.5c9.551,2.16,18.421,5.82,26.79,10.88c4.221,2.55,7.11,2.07,10.681-1.38
			c2.84-2.75,5.45-5.75,8.42-8.36c0.81-0.71,3.03-1.01,3.74-0.43c4.06,3.27,7.84,6.87,11.72,10.35l0.27,2.19
			c-3.43,3.05-6.989,5.96-10.25,9.17c-3.859,3.8-4.319,6.75-1.439,11.29c5.31,8.38,9.08,17.33,11.42,26.96
			c1.18,4.84,3.8,6.53,8.97,6.53c3.57,0,7.15,0.05,10.71-0.13c3.061-0.14,4.07,1.23,3.97,4.13c-0.13,3.57-0.1,7.15,0.091,10.72
			C752.01,256.44,751,257.76,747.93,257.63z"/>
		<path display="none" fill-rule="evenodd" clip-rule="evenodd" d="M926.696,169.41c-2.949,7.45-5.794,14.942-8.866,22.34
			c-5.229,12.585-15.569,16.847-28.332,11.872c-3.552-1.385-7.467-4.206-10.62-3.544c-2.866,0.604-4.778,5.196-7.371,7.766
			c-5.524,5.47-11.138,10.859-16.891,16.086c-1.67,1.518-2.24,2.629-1.205,4.783c1.708,3.556,3.259,7.213,4.532,10.945
			c3.464,10.146-0.592,20.135-10.245,24.716c-6.786,3.22-13.722,6.166-20.744,8.827c-10.191,3.864-20.281-0.137-25.118-9.975
			c-2.919-5.941-5.387-12.114-7.853-18.264c-1.693-4.226-0.172-8.114,3.434-9.707c3.837-1.694,7.716-0.177,9.748,4.171
			c2.426,5.195,4.547,10.531,6.85,15.784c2.229,5.082,4.498,5.97,9.646,3.809c5.406-2.271,10.81-4.55,16.189-6.885
			c4.834-2.1,5.797-4.536,3.738-9.435c-2.123-5.054-4.368-10.056-6.463-15.121c-2.007-4.857-1.421-7.58,2.845-10.656
			c11.51-8.299,21.278-18.241,29.313-29.94c2.717-3.958,5.667-4.642,10.343-2.822c5.224,2.035,10.385,4.232,15.608,6.27
			c4.644,1.81,7.179,0.709,9.074-3.909c2.274-5.542,4.499-11.108,6.679-16.688c1.947-4.989,0.977-7.309-3.919-9.337
			c-5.062-2.099-10.179-4.063-15.244-6.155c-4.879-2.016-6.386-4.675-5.511-9.912c2.275-13.61,2.143-27.18-0.358-40.75
			c-1.008-5.469,0.415-8.06,5.491-10.283c5.021-2.2,10.104-4.255,15.125-6.456c4.522-1.981,5.568-4.342,3.744-8.789
			c-2.416-5.894-4.931-11.75-7.538-17.563c-1.823-4.061-4.211-5.017-8.323-3.348c-5.196,2.108-10.312,4.418-15.48,6.594
			c-5.079,2.138-7.881,1.609-11.017-2.746c-8.217-11.407-17.999-21.136-29.646-29.044c-4.293-2.915-4.971-5.782-3.077-10.612
			c2-5.102,4.164-10.138,6.186-15.231c1.979-4.987,1.019-7.33-3.859-9.36c-5.648-2.352-11.31-4.677-17.014-6.89
			c-4.438-1.721-6.978-0.593-8.812,3.826c-2.099,5.062-4.063,10.178-6.136,15.25c-2.084,5.094-4.823,6.725-10.166,5.798
			c-13.607-2.365-27.167-2.237-40.728,0.396c-5.146,0.999-7.854-0.499-10.021-5.394c-2.22-5.011-4.3-10.085-6.501-15.105
			c-2.094-4.772-4.356-5.787-9.04-3.86c-5.892,2.424-11.75,4.944-17.558,7.564c-3.808,1.719-4.804,4.2-3.253,8.089
			c2.121,5.328,4.461,10.569,6.647,15.873c2.079,5.048,1.481,7.793-2.954,10.953c-11.352,8.087-20.899,17.876-28.815,29.339
			c-3.106,4.499-5.875,5.16-10.898,3.169c-5.214-2.065-10.369-4.284-15.597-6.315c-4.302-1.67-6.704-0.656-8.536,3.644
			c-2.5,5.86-4.918,11.756-7.232,17.691c-1.661,4.26-0.564,6.707,3.705,8.518c5.28,2.24,10.634,4.313,15.909,6.561
			c4.792,2.041,6.607,5.597,5.074,9.594c-1.589,4.134-5.604,5.595-10.567,3.667c-5.464-2.123-10.921-4.282-16.299-6.618
			c-11.431-4.964-15.796-15.474-11.294-27.11c2.343-6.062,4.766-12.098,7.288-18.089c4.728-11.231,15.187-15.78,26.677-11.617
			c3.233,1.17,6.4,2.531,9.55,3.917c1.829,0.806,2.921,0.681,4.492-1.002c7.208-7.72,14.627-15.25,22.144-22.673
			c1.589-1.569,2.274-2.626,1.204-4.813c-1.678-3.427-3.111-6.993-4.396-10.591c-3.563-9.977,0.144-19.969,9.584-24.623
			c7.186-3.54,14.601-6.701,22.13-9.438c9.661-3.514,19.521,0.702,24.179,9.935c1.833,3.633,3.308,7.453,4.832,11.234
			c0.722,1.791,1.629,2.486,3.723,2.141c10.652-1.754,21.361-1.828,32.043-0.329c2.291,0.322,3.171-0.447,3.901-2.401
			c1.381-3.699,2.819-7.393,4.514-10.956c4.45-9.355,14.123-13.853,23.902-10.566c7.835,2.633,15.54,5.778,23.019,9.301
			c8.563,4.032,12.628,13.876,9.867,22.943c-1.295,4.257-3.276,8.3-4.679,12.53c-0.334,1.011-0.013,2.817,0.717,3.513
			c8.469,8.069,17.073,15.997,26.176,24.458c2.764-1.158,6.6-2.824,10.479-4.377c11.95-4.782,22.474-0.477,27.641,11.372
			c3.201,7.342,6.249,14.751,9.364,22.129c0.021,2.298,0.043,4.597,0.065,6.896c-2.296,8.943-8.207,14.322-16.786,17.127
			c-1.563,0.512-2.981,1.482-4.557,1.931c-2.614,0.748-3.269,2.04-3.147,4.921c0.429,10.131,0.525,20.291,0.308,30.429
			c-0.064,2.986,0.665,4.229,3.415,5.131c9.469,3.103,18.276,7.143,21.498,17.834C926.646,164.303,926.671,166.857,926.696,169.41z"
			/>
		<path display="none" fill-rule="evenodd" clip-rule="evenodd" d="M775.826,60.927c30.294,0.132,56.599,21,62.904,50.107
			c6.504,30.033-8.503,60.321-36.66,72.354c-7.23,3.088-15.423,4.112-23.281,5.474c-4.879,0.844-8.698-2.583-8.861-6.823
			c-0.159-4.104,3.026-7.072,7.979-7.495c22.218-1.899,37.901-12.805,45.351-34.066c9.518-27.174-7.079-56.632-35.347-63.521
			c-27.937-6.81-55.954,11.853-60.278,40.199c-0.423,2.763-0.465,5.581-0.742,8.369c-0.494,4.984-3.501,7.855-7.839,7.542
			c-4.147-0.297-6.582-3.329-6.629-8.258c-0.303-30.894,23-58.226,53.543-62.753C769.236,61.569,772.538,61.298,775.826,60.927z"/>
		<path fill-rule="evenodd" clip-rule="evenodd" d="M650.18,202.52c-2.649,0.03-5.239,0.28-7.77,0.74
			c-5.351,0.98-10.391,2.88-14.95,5.55c-14.12,8.21-23.62,23.65-23.44,41.07c0.271,25.36,21.591,46.3,47.061,46.24
			c5.36-0.01,10.54-0.98,15.37-2.74c5.03-1.83,9.689-4.52,13.78-7.87c10.63-8.72,17.5-21.96,17.42-36.51
			C697.51,223.27,676.04,202.23,650.18,202.52z M675.91,268.94c-3.37,4.23-7.78,7.62-12.851,9.76c-3.64,1.55-7.609,2.44-11.77,2.54
			c-17.271,0.4-32.06-13.9-32.48-31.42c-0.3-12.37,6.96-23.48,17.601-28.96c4.16-2.14,8.83-3.42,13.77-3.58
			c0.681-0.02,1.36-0.02,2.03,0c16.45,0.58,30.35,14.69,30.62,31.62C682.96,256.39,680.34,263.39,675.91,268.94z"/>
		<path display="none" fill-rule="evenodd" clip-rule="evenodd" fill="#FFFFFF" d="M636.41,220.86
			c11.8,17.25,20.91,36.69,26.649,57.84c-3.64,1.55-7.609,2.44-11.77,2.54c-17.271,0.4-32.06-13.9-32.48-31.42
			C618.51,237.45,625.77,226.34,636.41,220.86z"/>
		<path display="none" fill-rule="evenodd" clip-rule="evenodd" fill="#FFFFFF" d="M682.83,248.9c0.13,7.49-2.49,14.49-6.92,20.04
			c-5.69-18.78-13.74-36.06-23.7-51.66C668.66,217.86,682.56,231.97,682.83,248.9z"/>
		<radialGradient id="SVGID_3_" cx="650.8711" cy="249.2178" r="100.9883" gradientUnits="userSpaceOnUse">
			<stop  offset="0" style="stop-color:#FFDC80"/>
			<stop  offset="0.5" style="stop-color:#FCAF45"/>
			<stop  offset="0.7" style="stop-color:#F77737"/>
			<stop  offset="0.85" style="stop-color:#F56040"/>
			<stop  offset="1" style="stop-color:#FD1D1D"/>
		</radialGradient>
		<path fill-rule="evenodd" clip-rule="evenodd" fill="url(#SVGID_3_)" d="M751.77,242.81c0.101-2.9-0.909-4.27-3.97-4.13
			c-3.56,0.18-7.14,0.13-10.71,0.13c-5.17,0-7.79-1.69-8.97-6.53c-2.34-9.63-6.11-18.58-11.42-26.96
			c-2.88-4.54-2.42-7.49,1.439-11.29c3.261-3.21,6.82-6.12,10.25-9.17l-0.27-2.19c-3.88-3.48-7.66-7.08-11.72-10.35
			c-0.71-0.58-2.931-0.28-3.74,0.43c-2.97,2.61-5.58,5.61-8.42,8.36c-3.57,3.45-6.46,3.93-10.681,1.38
			c-8.369-5.06-17.239-8.72-26.79-10.88c-5.539-1.25-7.26-3.67-7.449-9.5c-0.11-3.57-0.15-7.14-0.12-10.71
			c0.01-2.24-0.84-3.24-3.19-3.15c-4.08,0.16-8.17,0.2-12.25,0.11c-2.58-0.06-3.38,1.24-3.34,3.5c0.061,3.71,0.26,7.41,0.15,11.1
			c-0.181,5.5-1.75,7.7-7.061,8.98c-5.21,1.25-10.189,2.97-15,5.12c-3.979,1.78-7.84,3.84-11.609,6.17
			c-0.99,0.61-1.9,1.07-2.761,1.37c-3.069,1.08-5.47,0.13-8.529-2.82c-2.67-2.57-5.32-5.15-7.91-7.79
			c-1.601-1.63-2.97-1.6-4.54,0.05c-2.811,2.96-5.63,5.92-8.601,8.72c-2.01,1.9-1.64,3.33,0.221,5.05
			c2.819,2.58,5.529,5.29,8.21,8.02c3.01,3.08,3.75,6.47,1.51,10.09c-5.57,8.99-9.29,18.66-11.66,28.93
			c-0.85,3.71-3.46,5.5-7.24,5.56c-4.09,0.06-8.17,0.13-12.25,0.13c-2.359,0.01-3.54,1.01-3.479,3.47c0.1,3.95,0.17,7.91,0.09,11.86
			c-0.05,2.68,1.16,3.63,3.73,3.54c3.689-0.15,7.399-0.16,11.1-0.12c4.8,0.06,7.63,1.93,8.74,6.44
			c2.41,9.88,6.239,19.08,11.76,27.64c2.5,3.89,1.96,7.02-1.22,10.42c-2.61,2.79-5.28,5.54-8.07,8.16
			c-1.94,1.82-1.92,3.31-0.01,5.09c2.99,2.77,5.99,5.56,8.77,8.54c1.681,1.8,2.891,1.55,4.4-0.04c2.64-2.77,5.32-5.52,8.05-8.19
			c3.76-3.69,6.521-4.19,10.97-1.51c8.37,5.03,17.24,8.7,26.771,10.89c5.43,1.25,7.2,3.61,7.439,9.12c0.16,3.7,0.181,7.4,0.12,11.1
			c-0.029,2.32,1.11,3.26,3.24,3.24c3.95-0.03,7.91-0.18,11.86-0.19c2.6,0,3.649-1.21,3.58-3.77c-0.11-3.83-0.21-7.67-0.021-11.49
			c0.24-4.82,1.98-7.07,6.55-8.16c0.681-0.16,1.36-0.33,2.03-0.51c5.19-1.37,10.17-3.18,14.97-5.44c3.41-1.6,6.73-3.42,9.971-5.46
			c4.51-2.85,7.449-2.37,11.329,1.33c2.761,2.65,5.5,5.32,8.16,8.08c1.46,1.51,2.62,1.62,4.11,0.01c2.93-3.19,5.93-6.34,9.04-9.36
			c1.79-1.74,1.28-2.97-0.271-4.42c-2.52-2.35-4.97-4.78-7.42-7.2c-4.51-4.45-5.01-7.13-1.75-12.52
			c4.931-8.15,8.42-16.82,10.431-26.13c1.09-5.03,3.699-7.05,8.899-7.24c3.57-0.13,7.15-0.23,10.71-0.09
			c3.07,0.13,4.08-1.19,3.931-4.1C751.67,249.96,751.64,246.38,751.77,242.81z M680.23,285.51c-4.091,3.35-8.75,6.04-13.78,7.87
			c-4.83,1.76-10.01,2.73-15.37,2.74c-25.47,0.06-46.79-20.88-47.061-46.24c-0.18-17.42,9.32-32.86,23.44-41.07
			c4.56-2.67,9.6-4.57,14.95-5.55c2.53-0.46,5.12-0.71,7.77-0.74c25.86-0.29,47.33,20.75,47.471,46.48
			C697.73,263.55,690.86,276.79,680.23,285.51z"/>
	</g>
</g>
<g id="Layer_3">
	<g>
	</g>
	<g>
	</g>
	<g>
	</g>
	<g>
	</g>
	<g>
	</g>
	<g>
	</g>
	<g>
	</g>
	<g>
	</g>
	<g>
	</g>
	<g>
	</g>
	<g>
	</g>
	<g>
	</g>
	<g>
	</g>
	<g>
	</g>
	<g>
	</g>
</g>
</svg>
